<svg xmlns="http://www.w3.org/2000/svg" width="82.546" height="80.482" viewBox="0 0 82.546 80.482">
  <g id="adobe-xd-seeklogo.com" transform="translate(0 0)">
    <path id="Path_62" data-name="Path 62" d="M10,10H85.667V83.6H10Z" transform="translate(-6.561 -6.561)" fill="#2e001e"/>
    <path id="Path_63" data-name="Path 63" d="M0,0V80.482H82.546V0ZM3.439,3.439H79.106v73.6H3.439Z" fill="#ff2bc2"/>
    <path id="Path_64" data-name="Path 64" d="M89.607,70.221a4.723,4.723,0,0,0-1.995-.344c-4.334,0-7.223,3.336-7.223,8.874,0,6.329,2.958,8.874,6.81,8.874a6.489,6.489,0,0,0,2.373-.378V70.221ZM74.2,79.026c0-8.014,5.159-14.274,13.62-14.274a15.252,15.252,0,0,1,1.788.069V55.878a.345.345,0,0,1,.344-.344h5.537c.275,0,.344.1.344.275V87.246A24.5,24.5,0,0,0,96,90.616c0,.241,0,.275-.206.378a20.487,20.487,0,0,1-8.8,1.995c-7.464,0-12.795-4.609-12.795-13.964ZM62.47,73.454,72.1,92.13c.172.275.069.55-.206.55H65.909a.675.675,0,0,1-.722-.447q-3.3-6.81-6.741-14.136h-.069c-2.064,4.609-4.334,9.63-6.535,14.17a.66.66,0,0,1-.619.378H45.514c-.344,0-.378-.275-.206-.482l9.424-18.126L45.617,56.016a.3.3,0,0,1,.241-.516h5.916c.344,0,.516.069.619.378,2.167,4.574,4.368,9.08,6.432,13.689h.069c1.995-4.54,4.2-9.114,6.294-13.62.172-.275.275-.447.619-.447h5.537c.275,0,.378.206.206.516L62.47,73.454Z" transform="translate(-29.658 -36.411)" fill="#ff2bc2"/>
  </g>
</svg>
