<svg id="docker-seeklogo.com" xmlns="http://www.w3.org/2000/svg" width="136.432" height="93.729" viewBox="0 0 136.432 93.729">
  <path id="Path_25" data-name="Path 25" d="M20.688,162.588v-7.149a1.727,1.727,0,0,1,1.9-1.694h.329a1.724,1.724,0,0,1,1.9,1.694V170.49c0,3.67-2.215,6.591-6.073,8.451a13.381,13.381,0,0,1-5.841,1.3h-.82a12.2,12.2,0,0,1-10.321-4.972A8.075,8.075,0,0,1,.176,170.49v-.671c0-3.672,2.216-6.59,6.072-8.454a13.333,13.333,0,0,1,5.842-1.3h.82a13.027,13.027,0,0,1,7.779,2.527ZM4.31,170.154c0,2.651,1.57,4.645,4.407,5.916a9,9,0,0,0,3.7.79,8.391,8.391,0,0,0,7.161-3.433,5.506,5.506,0,0,0,1.108-3.342c0-2.3-1.329-4.092-3.591-5.424a8.923,8.923,0,0,0-4.6-1.213,8.08,8.08,0,0,0-7.453,3.979,5.293,5.293,0,0,0-.736,2.727Zm34.857-10.093h.573c4.791,0,8.434,1.9,10.743,5.327A7.856,7.856,0,0,1,51.9,169.82v.671c0,3.67-2.21,6.595-6.075,8.452a13.414,13.414,0,0,1-5.839,1.3h-.819a12.2,12.2,0,0,1-10.321-4.972,8.076,8.076,0,0,1-1.594-4.783v-.671c0-3.672,2.224-6.581,6.07-8.454a13.273,13.273,0,0,1,5.844-1.305Zm-7.78,10.093c0,2.574,1.543,4.467,4.2,5.8a8.982,8.982,0,0,0,4.076.908,8.3,8.3,0,0,0,7-3.436,5.459,5.459,0,0,0,1.107-3.339c0-2.393-1.408-4.221-3.814-5.546a8.941,8.941,0,0,0-4.375-1.091,8.078,8.078,0,0,0-7.453,3.979,5.283,5.283,0,0,0-.737,2.727Zm37.7-6.435a9.3,9.3,0,0,0-2.467-.34,7.9,7.9,0,0,0-7.42,3.982,5.274,5.274,0,0,0-.737,2.724c0,2.9,1.86,4.93,5.021,6.168a11.306,11.306,0,0,0,3.908.538,11.928,11.928,0,0,0,3.664-.94l.171-.066h.765l.084.014c.94.16,1.65.648,1.65,1.477v.335c0,2.062-4.6,2.533-6.356,2.634-6.2.351-10.828-2.435-12.595-7.274a7.3,7.3,0,0,1-.445-2.55v-.67c0-3.672,2.225-6.58,6.071-8.451a13.276,13.276,0,0,1,5.843-1.306h.819a12.223,12.223,0,0,1,6.053,1.53l.15.085.094.128a1.579,1.579,0,0,1,.366.892v.335c0,.864-.789,1.329-1.743,1.479l-.079.011H71.66a10.748,10.748,0,0,1-2.57-.735ZM82.5,166.012c1.606-1.317,3.218-2.631,4.848-3.926.454-.361,2.174-1.891,2.851-1.891h.741l.084.014c.943.16,1.65.649,1.65,1.479v.335c0,.566-.81,1.224-1.257,1.612-.95.825-1.95,1.622-2.922,2.43l-5,4.152q3.226,2.647,6.433,5.311c.59.492,1.18.984,1.761,1.484a4.053,4.053,0,0,1,.681.642,1.223,1.223,0,0,1,.3.766v.35l-.024.08a1.851,1.851,0,0,1-1.876,1.4h-.329a3.8,3.8,0,0,1-1.925-1c-.965-.745-1.9-1.529-2.845-2.291L82.5,174.408v4.078a1.727,1.727,0,0,1-1.9,1.694h-.326a1.726,1.726,0,0,1-1.9-1.694V155.5a1.724,1.724,0,0,1,1.9-1.691H80.6a1.724,1.724,0,0,1,1.9,1.691v10.508Zm51.534-5.817h.41c1.241,0,2.068.684,2.068,1.694,0,1.4-1.637,1.76-3.053,1.76a8.153,8.153,0,0,0-4.91,1.953,5.882,5.882,0,0,0-2.3,4.753v8.2a1.725,1.725,0,0,1-1.9,1.694h-.326a1.725,1.725,0,0,1-1.9-1.694v-8.667c0-3.328,1.979-6.045,5.277-7.951a13.164,13.164,0,0,1,6.638-1.739Zm-29.388,16.244a11.748,11.748,0,0,0,4.765.149,12.559,12.559,0,0,1,3.552-.89l.116.016.107.043a2.245,2.245,0,0,1,1.118.812,1.485,1.485,0,0,1-.782,2.28l-.354.167a14.072,14.072,0,0,1-12-.135,10.371,10.371,0,0,1-4.354-3.553l-.247-.35c-2.518-3.571-2.178-7.327.661-10.722a10.849,10.849,0,0,1,3.76-2.789l.567-.268A13.934,13.934,0,0,1,113,161.1a10.649,10.649,0,0,1,4.831,3.668l.2.291c.827,1.174-.244,2.2-1.351,2.9-1.284.811-2.58,1.787-3.81,2.657q-4.116,2.909-8.226,5.824ZM101.1,174.4q4.6-3.232,9.2-6.474c1.045-.738,2.193-1.5,3.23-2.281a8.486,8.486,0,0,0-3.4-1.847,9.326,9.326,0,0,0-6.924.54,6.2,6.2,0,0,0-3.975,6.192,5.182,5.182,0,0,0,1.074,2.973,8.125,8.125,0,0,0,.8.9Z" transform="translate(-0.082 -86.567)" fill="#364548" fill-rule="evenodd"/>
  <path id="Path_26" data-name="Path 26" d="M93.276,19.983h12.2V30.2h6.169a32.164,32.164,0,0,0,8.477-1.164,24.31,24.31,0,0,0,4.122-1.525,11.218,11.218,0,0,1-2.861-6.458c-.352-3.117.417-7.175,2.993-9.615l1.283-1.215,1.528,1.006c3.848,2.532,7.084,6.069,7.655,10.1A22.394,22.394,0,0,1,149,22.4l1.676.792-.882,1.409c-3.454,5.52-10.675,7.23-17.734,6.927C121.5,53.078,98.5,63.278,70.612,63.278c-14.407,0-27.625-4.41-35.152-14.877l-.123-.171L34.24,46.4a24.332,24.332,0,0,1-2.816-14.7L31.6,30.2H42.03V19.983h12.2V9.991h24.4V0H93.276V19.983" transform="translate(-14.576)" fill="#364548" fill-rule="evenodd"/>
  <path id="Path_27" data-name="Path 27" d="M134.584,39.9c.818-5.206-3.94-9.3-6.891-11.238-3.4,3.219-3.929,11.657,1.406,15.209C126.122,46.036,119.848,48,113.424,48h-78.2a22.815,22.815,0,0,0,3.241,14.876l.89,1.332A24.925,24.925,0,0,0,41.2,66.472h0q4.822.254,8.891.178h0A52.573,52.573,0,0,0,63.067,65.1a1,1,0,0,1,1.2.475.745.745,0,0,1-.58.979c-.438.125-.9.241-1.367.351h0a49.147,49.147,0,0,1-8.967,1.2c.213,0-.222.026-.223.027-.122.006-.276.021-.4.026-1.413.065-2.938.079-4.5.079-1.705,0-3.385-.027-5.262-.1l-.048.026c6.516,6,16.7,9.593,29.473,9.593,27.026,0,49.95-9.81,60.1-31.835,7.2.605,14.123-.9,17.271-5.931-5.015-2.37-11.464-1.614-15.177-.086" transform="translate(-16.353 -16.138)" fill="#22a0c8" fill-rule="evenodd"/>
  <path id="Path_28" data-name="Path 28" d="M138.758,39.9c.818-5.206-3.94-9.3-6.891-11.238-3.4,3.219-3.929,11.657,1.406,15.209C130.3,46.036,124.022,48,117.6,48H44.032c-.319,8.409,3.492,14.793,10.235,18.652h0A52.573,52.573,0,0,0,67.241,65.1a1,1,0,0,1,1.2.475.745.745,0,0,1-.58.979c-.438.125-.9.241-1.367.351h0a51.654,51.654,0,0,1-9.207,1.248l-.088-.068c9.2,3.863,22.534,3.849,37.825-.96a106.846,106.846,0,0,0,44.231-27.422c-.168.062-.332.126-.49.191" transform="translate(-20.528 -16.138)" fill="#37b1d9" fill-rule="evenodd"/>
  <path id="Path_29" data-name="Path 29" d="M35.645,88.186a22.387,22.387,0,0,0,3.1,8.2l.89,1.332a24.876,24.876,0,0,0,1.844,2.266q4.823.254,8.892.178A52.573,52.573,0,0,0,63.338,98.62a1,1,0,0,1,1.2.475.745.745,0,0,1-.58.979c-.438.125-.9.241-1.367.351h0a51.7,51.7,0,0,1-9.191,1.223c-.123.006-.338.007-.462.013-1.412.065-2.922.1-4.481.1-1.7,0-3.449-.027-5.326-.1,6.515,6,16.766,9.606,29.536,9.606,23.137,0,43.267-7.191,54.95-23.08H35.645" transform="translate(-16.624 -49.654)" fill="#1b81a5" fill-rule="evenodd"/>
  <path id="Path_30" data-name="Path 30" d="M45.367,88.186a19.431,19.431,0,0,0,9.532,11.98A52.573,52.573,0,0,0,67.872,98.62a1,1,0,0,1,1.2.475.745.745,0,0,1-.58.979c-.438.125-.9.241-1.367.351h0a52.485,52.485,0,0,1-9.254,1.223c9.2,3.863,22.495,3.807,37.784-1a106.9,106.9,0,0,0,26.138-12.459H45.367" transform="translate(-21.159 -49.654)" fill="#1d91b4" fill-rule="evenodd"/>
  <path id="Path_31" data-name="Path 31" d="M55.261,49.543H65.835V58.2H55.261Zm.881.722h.834v7.217h-.834Zm1.569,0h.868v7.217H57.71Zm1.6,0h.868v7.217h-.868Zm1.6,0h.868v7.217h-.868Zm1.6,0h.868v7.217h-.868Zm1.6,0h.835v7.217h-.835Z" transform="translate(-25.773 -27.895)" fill="#23a3c2" fill-rule="evenodd"/>
  <path id="Path_32" data-name="Path 32" d="M78.126,26.677H88.7v8.659H78.126Zm.882.722h.834v7.216h-.834Zm1.569,0h.867v7.216h-.867Zm1.6,0h.868v7.216h-.868Zm1.6,0h.868v7.216H83.78Zm1.6,0h.868v7.216h-.868Zm1.6,0h.836v7.216h-.836Z" transform="translate(-36.437 -15.021)" fill="#23a3c2" fill-rule="evenodd"/>
  <path id="Path_33" data-name="Path 33" d="M78.126,49.543H88.7V58.2H78.126Zm.882.722h.834v7.217h-.834Zm1.569,0h.867v7.217h-.867Zm1.6,0h.868v7.217h-.868Zm1.6,0h.868v7.217H83.78Zm1.6,0h.868v7.217h-.868Zm1.6,0h.836v7.217h-.836Z" transform="translate(-36.437 -27.895)" fill="#34bbde" fill-rule="evenodd"/>
  <path id="Path_34" data-name="Path 34" d="M100.993,49.543h10.575V58.2H100.993Zm.881.722h.834v7.217h-.834Zm1.569,0h.868v7.217h-.868Zm1.6,0h.868v7.217h-.868Zm1.6,0h.868v7.217h-.868Zm1.6,0h.869v7.217h-.869Zm1.6,0h.835v7.217h-.835Z" transform="translate(-47.103 -27.895)" fill="#23a3c2" fill-rule="evenodd"/>
  <path id="Path_35" data-name="Path 35" d="M100.993,26.677h10.575v8.659H100.993Zm.881.722h.834v7.216h-.834Zm1.569,0h.868v7.216h-.868Zm1.6,0h.868v7.216h-.868Zm1.6,0h.868v7.216h-.868Zm1.6,0h.869v7.216h-.869Zm1.6,0h.835v7.216h-.835Z" transform="translate(-47.103 -15.021)" fill="#34bbde" fill-rule="evenodd"/>
  <path id="Path_36" data-name="Path 36" d="M123.859,49.543h10.575V58.2H123.859Zm.882.722h.834v7.217h-.834Zm1.569,0h.868v7.217h-.868Zm1.6,0h.868v7.217h-.868Zm1.6,0h.868v7.217h-.868Zm1.6,0h.868v7.217h-.868Zm1.6,0h.835v7.217h-.835Z" transform="translate(-57.767 -27.895)" fill="#34bbde" fill-rule="evenodd"/>
  <path id="Path_37" data-name="Path 37" d="M123.859,26.677h10.575v8.659H123.859Zm.882.722h.834v7.216h-.834Zm1.569,0h.868v7.216h-.868Zm1.6,0h.868v7.216h-.868Zm1.6,0h.868v7.216h-.868Zm1.6,0h.868v7.216h-.868Zm1.6,0h.835v7.216h-.835Z" transform="translate(-57.767 -15.021)" fill="#23a3c2" fill-rule="evenodd"/>
  <path id="Path_38" data-name="Path 38" d="M123.859,3.811h10.575V12.47H123.859Zm.882.721h.834v7.216h-.834Zm1.569,0h.868v7.216h-.868Zm1.6,0h.868v7.216h-.868Zm1.6,0h.868v7.216h-.868Zm1.6,0h.868v7.216h-.868Zm1.6,0h.835v7.216h-.835Z" transform="translate(-57.767 -2.146)" fill="#34bbde" fill-rule="evenodd"/>
  <path id="Path_39" data-name="Path 39" d="M146.725,49.543H157.3V58.2H146.725Zm.881.722h.835v7.217h-.835Zm1.569,0h.868v7.217h-.868Zm1.6,0h.868v7.217h-.868Zm1.6,0h.868v7.217h-.868Zm1.6,0h.868v7.217h-.868Zm1.6,0h.835v7.217h-.835Z" transform="translate(-68.432 -27.895)" fill="#23a3c2" fill-rule="evenodd"/>
  <path id="Path_40" data-name="Path 40" d="M94.154,101.492a2.437,2.437,0,1,1-2.917,2.389,2.693,2.693,0,0,1,2.917-2.389" transform="translate(-42.552 -57.146)" fill="#d3ecec" fill-rule="evenodd"/>
  <path id="Path_41" data-name="Path 41" d="M94.877,103.043a2.5,2.5,0,0,1,.757.116.688.688,0,0,0-.427.6.787.787,0,0,0,.853.7.894.894,0,0,0,.748-.364,1.443,1.443,0,0,1,.159.656,2.131,2.131,0,1,1-2.089-1.711" transform="translate(-43.276 -58.019)" fill="#364548" fill-rule="evenodd"/>
  <path id="Path_42" data-name="Path 42" d="M0,84.217H135.71c-2.955-.614-9.349-1.443-8.294-4.614-5.373,5.091-18.331,3.572-21.6,1.061-3.641,4.325-24.841,2.681-26.32-.688-4.566,4.387-18.712,4.387-23.277,0-1.48,3.369-22.679,5.013-26.321.688-3.27,2.51-16.227,4.03-21.6-1.061,1.055,3.171-5.34,4-8.3,4.614" transform="translate(0 -44.821)" fill="#364548" fill-rule="evenodd"/>
  <path id="Path_43" data-name="Path 43" d="M82.228,126.986c-7.225-2.807-11.19-6.624-13.4-10.79a53.969,53.969,0,0,1-9.658,1.2q-2.118.1-4.456.1-2.7,0-5.678-.13c6.625,5.422,14.777,9.6,29.869,9.673q1.671,0,3.321-.052" transform="translate(-22.871 -65.425)" fill="#bdd9d7" fill-rule="evenodd"/>
  <path id="Path_44" data-name="Path 44" d="M80.373,120.04a20.161,20.161,0,0,1-2.682-3.845,53.947,53.947,0,0,1-9.66,1.2c2.575,1.145,6.258,2.205,12.342,2.644" transform="translate(-31.729 -65.424)" fill="#d3ecec" fill-rule="evenodd"/>
</svg>
