<svg id="firebase-seeklogo.com" xmlns="http://www.w3.org/2000/svg" width="59.581" height="93.344" viewBox="0 0 59.581 93.344">
  <path id="Path_4" data-name="Path 4" d="M0,75.345l.5-.791L23.918,23.831l.049-.537L13.642,1.16c-.865-1.854-3.3-1.385-3.584.69Z" fill="#ffc24a"/>
  <g id="Group_7" data-name="Group 7" transform="translate(0.292 0.347)">
    <path id="Path_5" data-name="Path 5" d="M1.253,75.7l.375-.834,23.178-50.19L14.506,2.448c-.856-1.835-3.03-1.367-3.311.687Z" transform="translate(-1.253 -1.301)" fill="#ffa712"/>
    <path id="Path_6" data-name="Path 6" d="M1.253,75.7l.375-.834,23.178-50.19L14.506,2.448c-.856-1.835-3.03-1.367-3.311.687Z" transform="translate(-1.253 -1.301)"/>
  </g>
  <path id="Path_7" data-name="Path 7" d="M110.023,76.157l7.688-8.986-7.69-16.754a1.874,1.874,0,0,0-3.49,0l-4.109,8.943v.762Z" transform="translate(-78.527 -36.12)" fill="#f4bd62"/>
  <g id="Group_8" data-name="Group 8" transform="translate(23.968 13.445)">
    <path id="Path_8" data-name="Path 8" d="M110.129,76.716l7.474-8.736-7.474-16.242c-.71-1.542-2.434-1.7-3.136-.157l-4.13,9.081-.124.464Z" transform="translate(-102.739 -50.499)" fill="#ffa50e"/>
    <path id="Path_9" data-name="Path 9" d="M110.129,76.716l7.474-8.736-7.474-16.242c-.71-1.542-2.434-1.7-3.136-.157l-4.13,9.081-.124.464Z" transform="translate(-102.739 -50.499)"/>
  </g>
  <path id="Path_10" data-name="Path 10" d="M0,139.259.224,139l.815-.378,29.972-34.078.38-1.18L23.915,87.1Z" transform="translate(0 -63.914)" fill="#f6820c"/>
  <path id="Path_11" data-name="Path 11" d="M32.456,145.016l27.126-17.265L51.835,73.307a1.8,1.8,0,0,0-3.142-1.155L0,127.83l26.97,17.185a5.027,5.027,0,0,0,5.485,0" transform="translate(0 -52.485)" fill="#fde068"/>
  <path id="Path_12" data-name="Path 12" d="M60.327,128.322,52.639,74.291c-.241-1.69-1.763-2.39-2.824-1.178L1.289,128.439l26.674,17.015a4.988,4.988,0,0,0,5.444,0Z" transform="translate(-0.989 -53.2)" fill="#fcca3f"/>
  <path id="Path_13" data-name="Path 13" d="M32.456,298.175a5.027,5.027,0,0,1-5.485,0L.217,281.235,0,281.5l26.97,17.185a5.026,5.026,0,0,0,5.485,0l27.126-17.265-.066-.466Z" transform="translate(0 -206.152)" fill="#eeab37"/>
</svg>
