<svg xmlns="http://www.w3.org/2000/svg" width="99.165" height="93.996" viewBox="0 0 99.165 93.996">
  <g id="g5193" transform="translate(-15 -157.4)">
    <path id="path5113" d="M4.2,197.913-5,113.4l99.165.032-9.127,84.416L44.5,207.4ZM77.573,193.3l7.7-72.384H44.66l.309,79.836Zm-36.7-61.772H31.007l-.116,43.321-19.144-4.355.039,9.9,29.084,6.548V131.528Z" transform="translate(20 44)" fill="#3685e1"/>
    <path id="path5159" d="M64.542,224.685c-1.276-.323-7.58-1.742-14-3.193L38.9,218.879v-4.871c0-4.774,0-4.871.58-4.709.309.1,4.564,1.064,9.437,2.193l8.857,2.032.077-21.612.077-21.612H67.6v27.483c0,21.838-.077,27.483-.348,27.483-.193-.032-1.431-.29-2.707-.581Z" transform="translate(-6.921 5.454)" fill="rgba(235,235,235,0)" opacity="0.986"/>
    <path id="path5157" d="M38.339,218.537l-.039-9.9s12.222,2.871,19.144,4.355l.116-43.289h9.862v55.385l-29.084-6.548Z" transform="translate(-6.553 5.861)" fill="rgba(235,235,235,0.92)" opacity="0.986"/>
    <path id="path5117" d="M123.4,136.6h40.61l-7.7,72.384L123.4,216.436Zm30.825,60.256,2.669-27.063-19.725,1.839V157.18l21.04-.064.851-9.871-31.753.129.425,35.934,19.183-2.742-.271,8-19.338,4.29.193,9.806,26.725-5.806Z" transform="translate(-58.74 28.284)" fill="#fdd83c"/>
  </g>
</svg>
