<svg xmlns="http://www.w3.org/2000/svg" width="59.551" height="80.745" viewBox="0 0 59.551 80.745">
  <g id="java-seeklogo.com" transform="translate(-0.517 -0.371)">
    <path id="Path_54" data-name="Path 54" d="M69.833,267.473s-3.086,1.794,2.2,2.4a46.2,46.2,0,0,0,16.72-.709,29.089,29.089,0,0,0,4.443,2.169c-15.807,6.774-35.774-.392-23.358-3.861" transform="translate(-50.137 -204.657)" fill="#5382a1"/>
    <path id="Path_55" data-name="Path 55" d="M60.049,229.659s-3.461,2.562,1.825,3.108a65.226,65.226,0,0,0,21.573-1.036,9.576,9.576,0,0,0,3.323,2.026c-19.111,5.588-40.4.441-26.721-4.1" transform="translate(-42.285 -175.683)" fill="#5382a1"/>
    <path id="Path_56" data-name="Path 56" d="M132.234,93.03c3.895,4.484-1.023,8.519-1.023,8.519s9.889-5.105,5.348-11.5c-4.242-5.962-7.495-8.924,10.115-19.137,0,0-27.642,6.9-14.44,22.116" transform="translate(-98.186 -54.051)" fill="#e76f00"/>
    <path id="Path_57" data-name="Path 57" d="M54.953,293.2s2.283,1.881-2.515,3.337c-9.124,2.764-37.974,3.6-45.989.11-2.881-1.253,2.522-2.993,4.221-3.358a10.95,10.95,0,0,1,2.785-.313c-3.2-2.257-20.709,4.432-8.892,6.347,32.228,5.227,58.749-2.353,50.389-6.124" transform="translate(0 -223.849)" fill="#5382a1"/>
    <path id="Path_58" data-name="Path 58" d="M42.432,190.437s-14.675,3.486-5.2,4.751c4,.536,11.98.415,19.411-.208,6.073-.512,12.172-1.6,12.172-1.6a25.766,25.766,0,0,0-3.691,1.975c-14.9,3.919-43.691,2.1-35.4-1.913a27.768,27.768,0,0,1,12.708-3" transform="translate(-21.252 -145.621)" fill="#5382a1"/>
    <path id="Path_59" data-name="Path 59" d="M200.508,202.638c15.149-7.872,8.145-15.437,3.256-14.418a11.325,11.325,0,0,0-1.733.466,2.76,2.76,0,0,1,1.294-1c9.672-3.4,17.11,10.029-3.122,15.347a1.313,1.313,0,0,0,.3-.4" transform="translate(-153.003 -143.107)" fill="#5382a1"/>
    <path id="Path_60" data-name="Path 60" d="M101.266.371s8.39,8.393-7.957,21.3c-13.109,10.352-2.989,16.255-.005,23-7.652-6.9-13.267-12.981-9.5-18.638,5.529-8.3,20.848-12.328,17.463-25.66" transform="translate(-62.894 0)" fill="#e76f00"/>
    <path id="Path_61" data-name="Path 61" d="M57.855,320.423c14.541.931,36.871-.516,37.4-7.4,0,0-1.017,2.608-12.018,4.68a119.553,119.553,0,0,1-36.8.566s1.859,1.538,11.416,2.151" transform="translate(-35.186 -239.56)" fill="#5382a1"/>
  </g>
</svg>
