<svg xmlns="http://www.w3.org/2000/svg" width="177.196" height="80.652" viewBox="0 0 177.196 80.652">
  <g id="mongodb-seeklogo.com" transform="translate(0 -0.203)">
    <g id="Group_10" data-name="Group 10" transform="translate(0 0.203)">
      <path id="Path_46" data-name="Path 46" d="M414.743,58.2c-.16.051-.319.613-.319.919-.032,2.043-.064,7.458-.064,11.135,0,.1.1.306.192.306.48.051,1.631.1,2.622.1a4.6,4.6,0,0,0,2.622-.613c1.151-.919,1.694-2.912,1.694-5.108,0-4.954-2.174-6.844-5.4-6.844a3.254,3.254,0,0,0-1.343.1Zm8.25,22.832c0-5.057-2.334-7.866-6.555-7.866a11.616,11.616,0,0,0-1.855.051.374.374,0,0,0-.223.307c0,3.626-.032,9.4.064,11.645a4.567,4.567,0,0,0,1.055,2.759,4.856,4.856,0,0,0,2.782.613c2.526,0,4.732-2.247,4.732-7.508ZM408.221,55.388c.319,0,1.279.153,3.741.153,2.334,0,4.189-.1,6.459-.1,2.782,0,6.619,1.583,6.619,8.223a8.541,8.541,0,0,1-3.325,7.151.108.108,0,0,0,0,.2c2.686,1.073,5.052,3.729,5.052,8.735,0,4.9-1.918,8.019-4.7,9.96a10.33,10.33,0,0,1-5.947,1.583c-1.631,0-6.011-.306-8.441-.2-.256-.154.224-1.993.447-2.3a3.969,3.969,0,0,0,1.631-.409c.863-.357.959-.766,1.087-2.86.064-1.788.064-8.122.064-12.616,0-6.181.032-10.369,0-12.412-.032-1.583-.384-2.094-1.087-2.4-.544-.153-1.439-.358-2.174-.51a4.921,4.921,0,0,1,.576-2.2Zm-18.45,31.771a4.69,4.69,0,0,0,3.613,1.379c1.727,0,3.453-.51,5.116-2.911,1.695-2.451,2.878-6.231,2.878-12.259,0-5.772-1.375-10.471-4.189-13.229a8.161,8.161,0,0,0-6.011-2.248,3.156,3.156,0,0,0-1.79.357,1.778,1.778,0,0,0-.32.817C389,60.087,389,67.952,389,72.55c0,4.75,0,11.39.064,12.156a4.176,4.176,0,0,0,.7,2.452Zm-7.258-31.771c.608,0,2.942.153,4.061.153,2.015,0,3.453-.153,7.258-.153a9.361,9.361,0,0,1,7.8,3.984c2.334,3.218,3.549,7.662,3.549,13.076,0,7.713-2.206,12.157-4.413,14.711a11.289,11.289,0,0,1-9.176,4.137c-2.174,0-5.915-.1-9.017-.153h-.032a3.8,3.8,0,0,1,.511-2.3,3.51,3.51,0,0,0,1.471-.46c.671-.408.8-.97.9-2.86.1-3.525.064-7.764.064-12.565,0-3.422.032-10.114-.032-12.259-.1-1.787-.575-2.247-1.535-2.554a13.823,13.823,0,0,0-2.014-.51,6.254,6.254,0,0,1,.607-2.248Z" transform="translate(-249.57 -24.843)" fill="#8e714e" fill-rule="evenodd"/>
      <path id="Path_47" data-name="Path 47" d="M148.276,98.709a4.675,4.675,0,0,1-2.078-.868,2.018,2.018,0,0,1-.256-.818c-.064-1.788-.064-6.9-.064-10.318a17.994,17.994,0,0,0-1.023-6.844c-.863-1.941-2.11-3.065-3.709-3.065-1.407,0-3.293,1.533-4.86,3.678-.032.051-.288.409-.256-.153,0-.562.064-1.686.1-2.452A1.8,1.8,0,0,0,135.9,76.8a15.394,15.394,0,0,1-4.956,2.043,1.017,1.017,0,0,0-.16,1.839h.032a6.3,6.3,0,0,1,1.886,1.328,2.253,2.253,0,0,1,.288,1.43c.032,3.831.032,9.7-.064,12.923-.032,1.277-.256,1.736-.831,1.941l.064-.051a8.569,8.569,0,0,1-1.343.408,4.659,4.659,0,0,0,0,2.3c.352,0,2.206-.153,3.741-.153,2.11,0,3.2.153,3.741.153a5.153,5.153,0,0,0,.16-2.3,3.933,3.933,0,0,1-1.471-.358c-.576-.2-.736-.664-.768-1.736-.063-2.708-.063-8.428-.063-12.31a3.439,3.439,0,0,1,.383-1.89,3.976,3.976,0,0,1,2.974-1.737,2.67,2.67,0,0,1,2.206,1.175,6.5,6.5,0,0,1,1.023,3.218c.16,2.2.1,6.538.1,10.318,0,2.043-.1,2.554-.576,2.809a4.2,4.2,0,0,1-1.471.46,4.664,4.664,0,0,0,0,2.3c.927,0,2.014-.153,3.613-.153,1.982,0,3.261.153,3.773.153a5.574,5.574,0,0,0,.1-2.2ZM157.132,79.2c-1.695,0-2.75,2.094-2.75,5.363,0,3.32.927,7.151,3.549,7.151a2.068,2.068,0,0,0,1.662-1.022,9.487,9.487,0,0,0,1.024-4.7c0-4.239-1.311-6.793-3.485-6.793Zm-.224,22.576a2.033,2.033,0,0,0-1.375.562,5.89,5.89,0,0,0-1.95,4.291A5.827,5.827,0,0,0,154.7,110.3a4.46,4.46,0,0,0,3.837,1.89c3.261,0,4.7-2.81,4.7-5.567,0-1.942-.608-3.219-1.854-3.933a8.53,8.53,0,0,0-4.477-.92Zm.224,13.281a5.452,5.452,0,0,1-4.572-2.145,8.527,8.527,0,0,1-1.695-5.057,5.48,5.48,0,0,1,.64-2.554,22.024,22.024,0,0,1,2.942-3.78.227.227,0,0,0,.1-.2.352.352,0,0,0-.128-.255,4.55,4.55,0,0,1-2.079-3.218v-.1a1,1,0,0,1,.192-.919c.224-.255.544-.562.895-.919a14.539,14.539,0,0,0,1.471-1.533.53.53,0,0,0,.064-.306.352.352,0,0,0-.128-.255c-2.238-1.175-3.357-3.831-3.357-7.815a9.811,9.811,0,0,1,2.046-6.436,7.489,7.489,0,0,1,4.6-2.5h.1a6.879,6.879,0,0,1,3.517,1.226,3.956,3.956,0,0,0,2.079.51,2.382,2.382,0,0,0,2.238-1.328,4.212,4.212,0,0,1,.128,1.021,5.683,5.683,0,0,1-.416,2.35,1.632,1.632,0,0,1-1.407.971h-.16a4.733,4.733,0,0,1-.831-.2l-.128.1a.729.729,0,0,0,.032.357l.032.1c.064.46.192,1.838.192,2.2,0,4.188-1.055,6.027-2.174,7.406a6.135,6.135,0,0,1-3.741,2.3,2.545,2.545,0,0,0-.448.051,3.547,3.547,0,0,0-.416.051h-.032a1.779,1.779,0,0,0,.767,3.32c.288.051.576.051.9.1a18.259,18.259,0,0,1,5.148,1.021c1.471.868,2.4,2.962,2.4,5.465a12.045,12.045,0,0,1-4.508,9.5,7.223,7.223,0,0,1-4.253,1.482Zm18.225-35.6a2.237,2.237,0,0,0-1.727.766c-1.247,1.226-1.886,3.678-1.886,7.253,0,6.692,2.11,11.391,5.116,11.391a2.642,2.642,0,0,0,2.206-1.226c.927-1.227,1.407-3.678,1.407-7.1,0-6.64-2.079-11.084-5.116-11.084Zm.576,21.861c-5.436,0-7.386-6.385-7.386-12.361,0-4.188,1.055-7.406,3.165-9.705a7.273,7.273,0,0,1,4.892-2.3c4.156,0,7.066,4.75,7.066,11.595,0,4.648-1.151,8.325-3.357,10.573a6.866,6.866,0,0,1-4.381,2.2ZM118.955,79.453a2.238,2.238,0,0,0-1.727.766c-1.247,1.226-1.886,3.678-1.886,7.253,0,6.692,2.11,11.391,5.116,11.391a2.643,2.643,0,0,0,2.206-1.226c.927-1.227,1.407-3.678,1.407-7.1,0-6.64-2.046-11.084-5.116-11.084Zm.576,21.861c-5.436,0-7.386-6.385-7.386-12.361,0-4.188,1.055-7.406,3.165-9.705a7.273,7.273,0,0,1,4.892-2.3c4.157,0,7.066,4.75,7.066,11.595,0,4.648-1.151,8.325-3.357,10.573a6.719,6.719,0,0,1-4.38,2.2ZM82.984,100.8a3.383,3.383,0,0,1-.1-1.175,2.614,2.614,0,0,1,.1-.766,8.121,8.121,0,0,0,1.407-.46c.64-.256.9-.817.927-2.094.1-3.065.1-8.888.064-12.923v-.1a2.109,2.109,0,0,0-.352-1.43,6.316,6.316,0,0,0-1.918-1.328.738.738,0,0,1-.448-.715.786.786,0,0,1,.608-.766,16.826,16.826,0,0,0,4.892-1.992,1.8,1.8,0,0,1,.16.817l-.032.562c-.032.562-.064,1.226-.064,1.89,0,.2.128.357.256.357a.355.355,0,0,0,.192-.1c2.046-2.554,3.9-3.473,4.86-3.473,1.567,0,2.782,1.175,3.709,3.627.064.153.128.2.224.2a.217.217,0,0,0,.192-.153c1.887-2.3,3.773-3.678,5.02-3.678,2.974,0,4.732,3.524,4.732,9.5,0,1.686,0,3.882-.032,5.875,0,1.787-.032,3.422-.032,4.6,0,.255.223,1.072.576,1.225a4.881,4.881,0,0,0,1.854.715h.032a6.34,6.34,0,0,1-.192,1.941,4.94,4.94,0,0,1-.8-.051c-.608-.051-1.471-.1-2.43-.1a36.732,36.732,0,0,0-4,.153,7.881,7.881,0,0,1,0-1.941,6.979,6.979,0,0,0,1.215-.46c.64-.306.8-.766.831-2.094,0-.97.128-9.245-.064-11.237-.192-2.043-1.151-4.443-3.261-4.443a4.636,4.636,0,0,0-3.261,1.992,1.256,1.256,0,0,0-.128.511v.051a37.541,37.541,0,0,1,.128,4.188v3.32c0,2.3-.032,4.444,0,6.078,0,1.124.416,1.379.767,1.584.192.05.319.1.48.153.288.1.576.2,1.023.358a4.356,4.356,0,0,1-.032,1.43,1.332,1.332,0,0,1-.128.511c-1.087-.051-2.206-.1-3.837-.1-.48,0-1.311.051-2.014.051-.576,0-1.119.051-1.439.051a4.172,4.172,0,0,1-.1-1.022,2.373,2.373,0,0,1,.128-.919,1.422,1.422,0,0,1,.448-.1c.383-.1.7-.2,1.023-.307.544-.255.736-.715.767-1.839.1-2.554.192-9.858-.032-11.7-.384-2.962-1.439-4.444-3.134-4.444a4.847,4.847,0,0,0-3.261,1.992,2.261,2.261,0,0,0-.288,1.175v3.014c0,3.677,0,8.275.032,10.267a1.546,1.546,0,0,0,.9,1.583,4.5,4.5,0,0,0,.736.2l.576.153a6.767,6.767,0,0,1-.1,1.941c-.32,0-.7-.051-1.151-.051-.671-.051-1.535-.1-2.494-.1-1.119,0-1.918.051-2.558.1a4.878,4.878,0,0,0-1.183-.1Z" transform="translate(-54.02 -34.402)" fill="#442d22" fill-rule="evenodd"/>
      <g id="Group_9" data-name="Group 9" transform="translate(0)">
        <path id="Path_48" data-name="Path 48" d="M27.323,86.829l-1.311-.716s.16-10.675-2.238-11.441c-1.6-2.963.256-125.652,6.011-.409a7.092,7.092,0,0,0-2.334,4.291,62.816,62.816,0,0,0-.128,8.275Z" transform="translate(-15.178 -8.169)" fill="#fff" fill-rule="evenodd"/>
        <path id="Path_49" data-name="Path 49" d="M27.323,86.829l-1.311-.716s.16-10.675-2.238-11.441c-1.6-2.963.256-125.652,6.011-.409a7.092,7.092,0,0,0-2.334,4.291,62.816,62.816,0,0,0-.128,8.275Z" transform="translate(-15.178 -8.169)" fill="#a6a385" fill-rule="evenodd"/>
        <path id="Path_50" data-name="Path 50" d="M33.285,68.71s11.479-12.055,8.793-37.134c-2.59-18.235-8.7-24.211-9.368-26.509A33.855,33.855,0,0,1,31.27.572l.48,50.72c0,.051-.991,15.528,1.535,17.418" transform="translate(-20.436 -0.368)" fill="#fff" fill-rule="evenodd"/>
        <path id="Path_51" data-name="Path 51" d="M33.285,68.71s11.479-12.055,8.793-37.134c-2.59-18.235-8.7-24.211-9.368-26.509A33.855,33.855,0,0,1,31.27.572l.48,50.72c0,.051-.991,15.528,1.535,17.418" transform="translate(-20.436 -0.368)" fill="#499d4a" fill-rule="evenodd"/>
        <path id="Path_52" data-name="Path 52" d="M10.164,69.209S-.612,57.461.028,36.775C.635,16.088,8.245,5.924,9.716,4.085A6.394,6.394,0,0,0,10.771.2c.671,2.3.544,34.376.639,38.155.288,14.557-.512,28.093-1.247,30.851Z" transform="translate(0 -0.203)" fill="#fff" fill-rule="evenodd"/>
        <path id="Path_53" data-name="Path 53" d="M10.164,69.209S-.612,57.461.028,36.775C.635,16.088,8.245,5.924,9.716,4.085A6.394,6.394,0,0,0,10.771.2c.671,2.3.544,34.376.639,38.155.288,14.557-.512,28.093-1.247,30.851Z" transform="translate(0 -0.203)" fill="#58aa50" fill-rule="evenodd"/>
      </g>
    </g>
  </g>
</svg>
