<svg xmlns="http://www.w3.org/2000/svg" width="88.756" height="93.611" viewBox="0 0 88.756 93.611">
  <path id="Path_21" data-name="Path 21" d="M44.378,93.611a8.491,8.491,0,0,1-3.859-.946L28.3,85.871c-1.838-.946-.919-1.29-.368-1.462a23.026,23.026,0,0,0,5.513-2.322.893.893,0,0,1,.919.086l9.372,5.246a1.238,1.238,0,0,0,1.1,0L81.5,67.553a.976.976,0,0,0,.551-.946V26.961a.977.977,0,0,0-.551-.946L44.837,6.235a1.238,1.238,0,0,0-1.1,0L7.075,26.015a1.064,1.064,0,0,0-.551.946V66.607a1.064,1.064,0,0,0,.551.946L17.09,72.971c5.421,2.58,8.82-.43,8.82-3.44V30.4a1.082,1.082,0,0,1,1.1-1.032H31.7A1.084,1.084,0,0,1,32.8,30.4v39.13c0,6.794-3.951,10.75-10.842,10.75-2.113,0-3.767,0-8.453-2.15l-9.647-5.16A7.184,7.184,0,0,1,0,66.693V27.047a7.185,7.185,0,0,1,3.859-6.278L40.519.9a8.7,8.7,0,0,1,7.718,0L84.9,20.769a7.185,7.185,0,0,1,3.859,6.278V66.693A7.184,7.184,0,0,1,84.9,72.971L48.237,92.837a9.952,9.952,0,0,1-3.859.774Zm11.3-27.262c-16.079,0-19.387-6.88-19.387-12.728a1.082,1.082,0,0,1,1.1-1.032h4.778a.922.922,0,0,1,1.011.86c.735,4.558,2.848,6.794,12.587,6.794,7.718,0,11.026-1.634,11.026-5.5,0-2.236-.919-3.87-12.955-4.988-10.015-.946-16.263-3.01-16.263-10.492,0-6.966,6.248-11.094,16.722-11.094,11.761,0,17.549,3.784,18.284,12.04a1.328,1.328,0,0,1-.276.774,1.164,1.164,0,0,1-.735.344H66.8a1.062,1.062,0,0,1-1.011-.774c-1.1-4.73-3.951-6.278-11.485-6.278-8.453,0-9.464,2.752-9.464,4.816,0,2.494,1.194,3.268,12.587,4.644,11.3,1.376,16.63,3.354,16.63,10.75-.092,7.568-6.707,11.868-18.376,11.868Z" fill="#539e43"/>
</svg>
