<svg xmlns="http://www.w3.org/2000/svg" width="109.954" height="93.344" viewBox="0 0 109.954 93.344">
  <g id="react-seeklogo.com" transform="translate(-0.754 -0.784)">
    <path id="Path_17" data-name="Path 17" d="M.754,47.289c0,7.841,8.108,15.16,20.892,19.286C19.093,78.709,21.188,88.49,28.187,92.3c7.194,3.917,17.91,1.206,28.082-7.19C66.184,93.167,76.2,96.338,83.2,92.516c7.186-3.928,9.372-14.372,6.749-26.886,13.315-4.156,20.763-10.4,20.763-18.342,0-7.659-8.123-14.284-20.735-18.384C92.8,15.875,90.4,6.331,83.116,2.363c-7.026-3.826-17.164-.491-27.224,7.776C45.426,1.364,35.389-1.315,28.108,2.665,21.088,6.5,19.085,16.46,21.646,28.819,9.294,32.885.754,39.661.754,47.289Z" transform="translate(0 0)" fill="rgba(255,255,255,0)"/>
    <path id="Path_18" data-name="Path 18" d="M95.53,41.1q-1.519-.494-3.144-.935.266-1.027.486-2.024c2.379-10.906.824-19.692-4.489-22.585-5.094-2.774-13.425.118-21.839,7.032q-1.213,1-2.431,2.106-.811-.732-1.618-1.411c-8.818-7.393-17.657-10.508-22.964-7.607-5.089,2.782-6.6,11.042-4.455,21.378q.31,1.5.722,3.054c-1.251.335-2.459.693-3.614,1.073-10.338,3.4-16.941,8.737-16.941,14.27,0,5.714,7.088,11.446,17.856,14.921q1.275.411,2.64.78-.442,1.681-.767,3.291C32.93,84.6,34.525,92.667,39.6,95.431c5.243,2.854,14.041-.08,22.609-7.151q1.016-.839,2.038-1.773,1.324,1.2,2.64,2.274c8.3,6.743,16.5,9.466,21.567,6.694,5.237-2.863,6.94-11.526,4.73-22.067q-.253-1.208-.586-2.464.927-.259,1.816-.536c11.195-3.5,18.478-9.164,18.478-14.954,0-5.552-6.815-10.922-17.362-14.35Z" transform="translate(-8.227 -8.127)" fill="#53c1de"/>
    <path id="Path_19" data-name="Path 19" d="M98.583,72.37c-.534.167-1.082.328-1.64.484A89.434,89.434,0,0,0,92,61.174a89.379,89.379,0,0,0,4.752-11.51c1,.273,1.968.561,2.9.865,9.036,2.937,14.548,7.28,14.548,10.626,0,3.564-5.953,8.192-15.619,11.216Zm-4.01,7.5a31.531,31.531,0,0,1,.469,12.169c-.582,2.96-1.751,4.933-3.2,5.724-3.077,1.682-9.658-.5-16.756-6.271q-1.221-.992-2.456-2.114a93.554,93.554,0,0,0,8.186-9.813,102.731,102.731,0,0,0,13.225-1.925q.3,1.138.529,2.23Zm-40.558,17.6c-3.007,1-5.4,1.031-6.849.243-3.08-1.678-4.361-8.153-2.614-16.838q.3-1.492.713-3.061a103.544,103.544,0,0,0,13.159,1.8A97.185,97.185,0,0,0,66.806,89.4q-.934.851-1.86,1.618a35.727,35.727,0,0,1-10.931,6.462ZM39.929,72.348A36.039,36.039,0,0,1,28.54,66.635c-2.422-1.958-3.645-3.9-3.645-5.481,0-3.357,5.3-7.64,14.143-10.55,1.073-.353,2.2-.686,3.361-1A91.266,91.266,0,0,0,47.158,61.25a92.776,92.776,0,0,0-4.819,11.81q-1.246-.338-2.41-.712ZM44.651,42c-1.835-8.856-.616-15.536,2.451-17.212,3.267-1.786,10.491.76,18.1,7.144q.73.612,1.465,1.277a95.63,95.63,0,0,0-8.319,9.72,107.549,107.549,0,0,0-13.031,1.912q-.381-1.448-.671-2.841Zm42.121,9.821q-1.449-2.364-2.969-4.611c3.115.372,6.1.866,8.9,1.47a81.081,81.081,0,0,1-3.125,7.94q-1.328-2.382-2.809-4.8Zm-17.177-15.8a85.564,85.564,0,0,1,5.746,6.55q-2.865-.128-5.793-.129-2.9,0-5.748.127c1.9-2.362,3.841-4.557,5.795-6.548ZM52.308,51.849q-1.448,2.37-2.756,4.768a83.9,83.9,0,0,1-3.1-7.978c2.786-.589,5.757-1.07,8.853-1.435q-1.538,2.266-2.993,4.645Zm3.083,23.538c-3.2-.337-6.214-.794-9-1.366a85.347,85.347,0,0,1,3.165-8.14q1.311,2.391,2.768,4.771h0q1.484,2.42,3.066,4.735ZM69.71,86.563c-1.977-2.015-3.949-4.243-5.875-6.639q2.8.1,5.713.1,2.986,0,5.895-.124a84.984,84.984,0,0,1-5.733,6.658Zm19.91-20.824A80.725,80.725,0,0,1,92.9,73.85c-2.831.61-5.888,1.1-9.109,1.466q1.521-2.275,3-4.692,1.492-2.443,2.832-4.885Zm-6.446,2.918c-1.526,2.5-3.093,4.885-4.684,7.136-2.9.2-5.892.3-8.943.3s-5.994-.089-8.841-.264c-1.655-2.281-3.256-4.674-4.773-7.148h0c-1.513-2.467-2.9-4.955-4.166-7.429,1.261-2.48,2.65-4.97,4.154-7.433h0c1.508-2.469,3.1-4.85,4.735-7.117,2.9-.207,5.882-.315,8.892-.315h0c3.023,0,6,.109,8.908.318,1.615,2.251,3.191,4.624,4.7,7.093,1.531,2.5,2.938,4.971,4.21,7.4-1.268,2.468-2.671,4.967-4.2,7.463Zm8.606-43.985c3.27,1.781,4.542,8.961,2.487,18.378-.131.6-.279,1.213-.439,1.833a105.377,105.377,0,0,0-13.056-1.947,93.655,93.655,0,0,0-8.255-9.727q1.126-1.022,2.246-1.945C81.973,25.339,88.711,23,91.781,24.671Z" transform="translate(-13.708 -13.828)" fill="#fff"/>
    <path id="Path_20" data-name="Path 20" d="M116.764,94.665a8.247,8.247,0,1,1-8.72,8.233,8.487,8.487,0,0,1,8.72-8.233" transform="translate(-60.924 -55.572)" fill="#53c1de"/>
  </g>
</svg>
